<svg xmlns="http://www.w3.org/2000/svg" width="429.00000000000006" height="94.20989156718699" viewBox="0 0 369.6666666666667 81.18008527428933" class="looka-1j8o68f"><defs id="SvgjsDefs1863"/><g id="SvgjsG1864" featurekey="symbolFeature-0" transform="matrix(1.2461059190031152,0,0,1.2461059190031152,-20.057319332134686,-22.611833138629283)" fill="#412d04"><g xmlns="http://www.w3.org/2000/svg"><path d="M52.786,61.176v3.374c0,0.562,0.447,1.018,1,1.018s1-0.456,1-1.018v-3.374h2.363c1.497,0,2.716-1.241,2.716-2.766v-2.401   h3.314c0.553,0,1-0.456,1-1.018c0-0.562-0.447-1.018-1-1.018h-3.314v-2.297h3.314c0.553,0,1-0.456,1-1.018   c0-0.562-0.447-1.018-1-1.018h-3.314v-2.294h3.314c0.553,0,1-0.456,1-1.018s-0.447-1.018-1-1.018h-3.314v-2.279   c0-1.525-1.219-2.766-2.716-2.766h-2.363v-3.374c0-0.562-0.447-1.018-1-1.018s-1,0.456-1,1.018v3.374h-2.255v-3.374   c0-0.562-0.448-1.018-1-1.018s-1,0.456-1,1.018v3.374h-2.254v-3.374c0-0.562-0.448-1.018-1-1.018s-1,0.456-1,1.018v3.374h-2.362   c-1.498,0-2.717,1.241-2.717,2.766v2.836h-3.314c-0.552,0-1,0.456-1,1.018c0,0.562,0.448,1.018,1,1.018h3.314v2.295h-3.314   c-0.552,0-1,0.456-1,1.018c0,0.562,0.448,1.018,1,1.018h3.314v2.297h-3.314c-0.552,0-1,0.456-1,1.018c0,0.562,0.448,1.018,1,1.018   h3.314v1.843c0,1.525,1.219,2.766,2.717,2.766h2.362v3.374c0,0.562,0.448,1.018,1,1.018s1-0.456,1-1.018v-3.374h2.254v3.374   c0,0.562,0.448,1.018,1,1.018s1-0.456,1-1.018v-3.374H52.786z M41.198,58.41V43.031c0-0.402,0.322-0.729,0.717-0.729h15.234   c0.395,0,0.716,0.328,0.716,0.729V58.41c0,0.402-0.321,0.729-0.716,0.729H41.915C41.52,59.14,41.198,58.812,41.198,58.41z"/><path d="M56.246,56.647V45.012c0-0.562-0.447-1.018-1-1.018H43.817c-0.552,0-1,0.456-1,1.018v11.635c0,0.562,0.448,1.018,1,1.018   h11.429C55.799,57.666,56.246,57.209,56.246,56.647z M54.246,55.629h-9.429V46.03h9.429V55.629z"/><path d="M82.971,50.056c0-3.709-2.189-6.886-5.279-8.19c-0.497-0.222-1.016-0.4-1.555-0.521c1.41-1.638,2.207-3.773,2.207-6.064   c0-5.007-3.873-9.081-8.633-9.081c-0.523,0-1.046,0.057-1.562,0.159c-0.305-4.581-3.936-8.212-8.366-8.212   c-0.024,0-0.045,0.013-0.069,0.014c-0.096-0.003-0.189-0.014-0.285-0.014c-4.6,0-8.634,4.521-8.634,9.676v5.614   c0,0.562,0.447,1.018,1,1.018s1-0.456,1-1.018v-5.614c0-4.07,3.1-7.64,6.634-7.64c3.658,0,6.635,3.161,6.635,7.045   c0,0.112-0.009,0.224-0.016,0.333l-0.008,0.107c-0.009,0.13,0.015,0.255,0.053,0.375c-0.483,3.239-3.125,5.726-6.31,5.726   c-0.553,0-1,0.456-1,1.018c0,0.562,0.447,1.018,1,1.018c4.137,0,7.576-3.165,8.264-7.311c0.551-0.154,1.106-0.259,1.665-0.259   c3.657,0,6.633,3.16,6.633,7.044c0,2.507-1.219,4.771-3.261,6.056c-0.021,0.013-0.034,0.034-0.054,0.048   c-3.893,0.766-6.851,4.36-6.851,8.672c0,0.562,0.447,1.018,1,1.018s1-0.456,1-1.018c0-3.745,2.869-6.792,6.396-6.792   c0.842,0,1.645,0.178,2.382,0.494c2.358,1.081,4.014,3.573,4.014,6.47c0,3.883-2.976,7.042-6.634,7.042   c-0.177,0-0.351-0.012-0.523-0.028c-0.451-0.045-0.884,0.241-1.033,0.685c-0.148,0.442,0.019,0.932,0.405,1.185   c1.927,1.263,3.088,3.423,3.146,5.804c-0.02,0.08-0.048,0.157-0.048,0.244c0,3.747-2.87,6.794-6.397,6.794   c-3.526,0-6.395-3.048-6.395-6.794c0-0.562-0.447-1.018-1-1.018s-1,0.456-1,1.018c0,3.299,1.731,6.177,4.286,7.693   c0.049,0.166,0.094,0.308,0.134,0.428c0.118,0.365,0.15,0.464,0.15,0.932c0,3.884-2.977,7.045-6.635,7.045   s-6.634-3.161-6.634-7.045c0-0.053-0.021-0.098-0.029-0.148c0.008-0.051,0.029-0.096,0.029-0.148v-5.359   c0-0.562-0.447-1.018-1-1.018s-1,0.456-1,1.018v5.359c0,0.053,0.022,0.098,0.029,0.148c-0.007,0.05-0.029,0.095-0.029,0.148   c0,5.007,3.873,9.081,8.634,9.081s8.635-4.074,8.635-9.081c0-0.068-0.001-0.133-0.002-0.195c0.54,0.11,1.092,0.165,1.65,0.165   c4.76,0,8.633-4.073,8.633-9.079c0-2.255-0.78-4.372-2.161-6.007c3.877-0.892,6.788-4.53,6.788-8.87   c0-0.048-0.005-0.094-0.006-0.142C82.965,50.075,82.971,50.066,82.971,50.056z"/><path d="M47.271,67.539c-0.552,0-1,0.456-1,1.018v5.359c0,0.053,0.022,0.098,0.029,0.148c-0.007,0.05-0.029,0.095-0.029,0.148   c0,3.884-2.977,7.045-6.635,7.045c-3.657,0-6.633-3.161-6.633-7.045c0-0.47,0.032-0.568,0.15-0.935   c0.039-0.119,0.083-0.261,0.131-0.425c2.556-1.516,4.289-4.394,4.289-7.694c0-0.562-0.448-1.018-1-1.018s-1,0.456-1,1.018   c0,3.747-2.869,6.794-6.396,6.794c-3.527,0-6.396-3.048-6.396-6.794c0-0.089-0.029-0.168-0.05-0.251   c0.062-2.377,1.223-4.534,3.148-5.796c0.386-0.253,0.554-0.743,0.405-1.186c-0.149-0.442-0.566-0.718-1.033-0.685   c-0.173,0.016-0.347,0.028-0.523,0.028c-3.658,0-6.634-3.159-6.634-7.042c0-2.896,1.656-5.389,4.015-6.47   c0.737-0.315,1.539-0.493,2.381-0.493c3.527,0,6.396,3.047,6.396,6.792c0,0.562,0.448,1.018,1,1.018s1-0.456,1-1.018   c0-4.312-2.958-7.907-6.853-8.672c-0.02-0.015-0.033-0.035-0.053-0.048c-2.042-1.286-3.26-3.549-3.26-6.056   c0-3.884,2.977-7.044,6.635-7.044c0.559,0,1.114,0.105,1.665,0.259c0.687,4.146,4.126,7.311,8.263,7.311c0.552,0,1-0.456,1-1.018   c0-0.562-0.448-1.018-1-1.018c-3.204,0-5.857-2.517-6.318-5.785c0.041-0.132,0.065-0.269,0.056-0.404   c-0.008-0.116-0.017-0.234-0.017-0.353c0-3.884,2.976-7.045,6.633-7.045c3.534,0,6.635,3.57,6.635,7.64v5.614   c0,0.562,0.448,1.018,1,1.018s1-0.456,1-1.018v-5.614c0-5.154-4.035-9.676-8.635-9.676c-0.096,0-0.189,0.011-0.284,0.014   c-0.024-0.001-0.045-0.014-0.069-0.014c-4.431,0-8.062,3.631-8.367,8.211c-0.517-0.102-1.038-0.158-1.561-0.158   c-4.761,0-8.635,4.074-8.635,9.081c0,2.29,0.797,4.425,2.208,6.064c-0.539,0.121-1.057,0.299-1.554,0.521   c-3.089,1.305-5.279,4.481-5.279,8.19c0,0.011,0.006,0.02,0.006,0.03c0,0.047-0.006,0.094-0.006,0.142   c0,4.34,2.911,7.978,6.788,8.87c-1.38,1.635-2.162,3.752-2.162,6.007c0,5.006,3.874,9.079,8.635,9.079   c0.559,0,1.11-0.056,1.651-0.166c-0.001,0.062-0.002,0.127-0.002,0.195c0,5.007,3.873,9.081,8.633,9.081   c4.761,0,8.635-4.074,8.635-9.081c0-0.053-0.022-0.098-0.029-0.148c0.007-0.051,0.029-0.096,0.029-0.148v-5.359   C48.271,67.994,47.823,67.539,47.271,67.539z"/></g></g><g id="SvgjsG1865" featurekey="nameFeature-0" transform="matrix(0.8501441305373897,0,0,0.8501441305373897,98.81559145863035,23.871262304346438)" fill="#65071e"><path d="M23.281 7.5 l11.797 0 l0 -6.0938 l-30.156 0 l0 6.0938 l18.359 0 z M16.719 13.594000000000001 l6.5625 0 l0 25 l-6.5625 0 l0 -25 z M70.703 38.5937 l7.0313 0 l-13.594 -37.266 l-7.1094 0 l7.8906 22.266 z M41.9531 38.5937 l6.875 0 l8.125 -19.844 l-3.3594 -8.9063 z M104.922 1.4059999999999988 c-2.8646 0 -5.5209 0.4686 -7.9688 1.4061 c-2.3959 0.9375 -4.4792 2.2396 -6.2501 3.9063 c-1.7188 1.5625 -3.0729 3.5416 -4.0625 5.9375 c-0.83336 2.0313 -1.3021 4.2448 -1.4063 6.6406 l0 2.3438 l6.875 0 l0 -2.3438 c0.10414 -1.7709 0.39063 -3.2031 0.85938 -4.2969 c0.625 -1.5104 1.4844 -2.8645 2.5781 -4.0624 c1.3021 -1.1979 2.6563 -2.0833 4.0625 -2.6562 c1.6146 -0.625 3.3855 -0.9375 5.3126 -0.9375 l9.8438 0 l0 -5.9375 l-9.8438 0 z M107.89099999999999 18.984 l0.000076294 1.4843 l0.078125 0 c-0.10414 1.6666 -0.41664 3.2031 -0.9375 4.6094 c-0.67711 1.6146 -1.5365 2.9427 -2.5781 3.9844 c-1.1459 1.1459 -2.5 2.0313 -4.0625 2.6563 c-1.6146 0.625 -3.3855 0.9375 -5.3126 0.9375 l-9.8438 0 l0 5.9375 l9.8438 0 c2.8646 0 5.5209 -0.46875 7.9688 -1.4063 c2.3959 -0.9375 4.4792 -2.2396 6.2501 -3.9063 c1.8229 -1.8229 3.177 -3.802 4.0624 -5.9374 c0.9375 -2.0834 1.4063 -4.375 1.4063 -6.875 l0 -1.4844 l-6.875 0 z M156.641 38.5156 l-12.734 -16.25 l-4.4531 4.8438 l9.2969 11.406 l7.8906 0 z M147.969 1.4059999999999988 l-17.734 18.359 l0 -18.359 l-6.4063 0 l0 37.109 l6.4063 0 l0 -8.75 l26.328 -28.359 l-8.5938 0 z M166.0938 1.4059999999999988 l27.813 0 l0 5.9375 l-27.813 0 l0 -5.9375 z M166.0938 16.875 l5.9375 0 l0 21.719 l-5.9375 0 l0 -21.719 z M166.0938 16.875 l25.078 0 l0 5.8594 l-25.078 0 l0 -5.8594 z M207.0313 1.4059999999999988 l6.4063 0 l0 31.25 l19.531 0 l0 5.9375 l-25.938 0 l0 -37.188 z M257.344 32.6562 c-0.78125 -0.15625 -1.5105 -0.3907 -2.1876 -0.7032 c-1.4584 -0.67711 -2.7344 -1.6146 -3.8281 -2.8125 c-1.0416 -1.0938 -1.875 -2.4479 -2.5 -4.0625 c-0.57289 -1.6146 -0.85938 -3.2552 -0.85938 -4.9219 l0 -0.15625 l0 -0.23438 c0 -1.7188 0.28648 -3.3854 0.85938 -5 c0.67711 -1.6666 1.5105 -2.9948 2.5001 -3.9844 c1.0416 -1.1979 2.2916 -2.1094 3.75 -2.7344 c0.88539 -0.41664 1.6406 -0.67703 2.2656 -0.78117 l0 -5.8594 c-1.8229 0.26039 -3.4375 0.70313 -4.8438 1.3281 c-2.2916 0.98961 -4.2448 2.3177 -5.8594 3.9844 s-2.8906 3.6458 -3.8281 5.9374 s-1.4063 4.6875 -1.4063 7.1875 l0 0.15625 l0 0.23438 c0 2.5521 0.46875 4.948 1.4063 7.1876 c0.83336 2.2396 2.0834 4.1927 3.75 5.8594 c1.6666 1.7188 3.6198 3.0469 5.8594 3.9844 c1.4063 0.625 3.0469 1.0677 4.9219 1.3281 l0 -5.9375 z M278.594 20 l0.000076294 -0.23438 c0 -2.5521 -0.46875 -4.948 -1.4063 -7.1876 c-0.9375 -2.2916 -2.2135 -4.2708 -3.8281 -5.9374 c-1.5625 -1.6666 -3.4896 -2.9688 -5.7813 -3.9063 c-1.3021 -0.625 -2.8906 -1.0677 -4.7656 -1.3281 l0 5.9375 l0.9375 0.3125 c0.46875 0.15625 0.83336 0.28648 1.0938 0.39063 c1.4584 0.67711 2.7344 1.6146 3.8281 2.8125 c1.0416 1.0938 1.875 2.4479 2.5 4.0625 c0.57289 1.6146 0.85938 3.2552 0.85938 4.9219 l0 0.15625 l0 0.23438 c0 1.7188 -0.28648 3.3854 -0.85938 5 c-0.67711 1.6666 -1.5105 2.9948 -2.5001 3.9844 c-1.0416 1.1979 -2.2916 2.1094 -3.75 2.7344 c-0.67711 0.3125 -1.3802 0.54688 -2.1094 0.70313 l0 5.9375 c1.5625 -0.20836 3.125 -0.65109 4.6875 -1.3282 c2.1354 -0.88539 4.0885 -2.2135 5.8594 -3.9844 c1.7188 -1.8229 2.9948 -3.802 3.8281 -5.9374 c0.9375 -2.2916 1.4063 -4.6875 1.4063 -7.1875 l0 -0.15625 z M287.5 1.4059999999999988 l-6.0156 0 l7.5781 37.188 l6.5625 0 l-4.8438 -22.891 z M312.813 1.4059999999999988 l-4.375 15.547 l2.9688 11.328 l7.1875 -26.875 l-5.7813 0 z M303.359 12.812000000000001 l-0.46875 -1.9531 l-2.5 -9.4531 l-3.3594 11.094 l-0.15625 0.3125 l-1.25 4.375 l2.3438 10.469 l1.4844 -5.1563 l3.8281 16.094 l6.6406 0 l-5.7813 -22.891 z"/></g></svg>