<svg xmlns="http://www.w3.org/2000/svg" class="css-ze2te4 css-qd6ojx" viewBox="0 0 83.33333333333333 81.18008527428933"><g transform="translate(-20.057319332134686, -22.611833138629283) scale(1.2461059190031152)" class="css-1cb7apk" fill="#412d04"><g xmlns="http://www.w3.org/2000/svg"><path d="M52.786,61.176v3.374c0,0.562,0.447,1.018,1,1.018s1-0.456,1-1.018v-3.374h2.363c1.497,0,2.716-1.241,2.716-2.766v-2.401   h3.314c0.553,0,1-0.456,1-1.018c0-0.562-0.447-1.018-1-1.018h-3.314v-2.297h3.314c0.553,0,1-0.456,1-1.018   c0-0.562-0.447-1.018-1-1.018h-3.314v-2.294h3.314c0.553,0,1-0.456,1-1.018s-0.447-1.018-1-1.018h-3.314v-2.279   c0-1.525-1.219-2.766-2.716-2.766h-2.363v-3.374c0-0.562-0.447-1.018-1-1.018s-1,0.456-1,1.018v3.374h-2.255v-3.374   c0-0.562-0.448-1.018-1-1.018s-1,0.456-1,1.018v3.374h-2.254v-3.374c0-0.562-0.448-1.018-1-1.018s-1,0.456-1,1.018v3.374h-2.362   c-1.498,0-2.717,1.241-2.717,2.766v2.836h-3.314c-0.552,0-1,0.456-1,1.018c0,0.562,0.448,1.018,1,1.018h3.314v2.295h-3.314   c-0.552,0-1,0.456-1,1.018c0,0.562,0.448,1.018,1,1.018h3.314v2.297h-3.314c-0.552,0-1,0.456-1,1.018c0,0.562,0.448,1.018,1,1.018   h3.314v1.843c0,1.525,1.219,2.766,2.717,2.766h2.362v3.374c0,0.562,0.448,1.018,1,1.018s1-0.456,1-1.018v-3.374h2.254v3.374   c0,0.562,0.448,1.018,1,1.018s1-0.456,1-1.018v-3.374H52.786z M41.198,58.41V43.031c0-0.402,0.322-0.729,0.717-0.729h15.234   c0.395,0,0.716,0.328,0.716,0.729V58.41c0,0.402-0.321,0.729-0.716,0.729H41.915C41.52,59.14,41.198,58.812,41.198,58.41z"/><path d="M56.246,56.647V45.012c0-0.562-0.447-1.018-1-1.018H43.817c-0.552,0-1,0.456-1,1.018v11.635c0,0.562,0.448,1.018,1,1.018   h11.429C55.799,57.666,56.246,57.209,56.246,56.647z M54.246,55.629h-9.429V46.03h9.429V55.629z"/><path d="M82.971,50.056c0-3.709-2.189-6.886-5.279-8.19c-0.497-0.222-1.016-0.4-1.555-0.521c1.41-1.638,2.207-3.773,2.207-6.064   c0-5.007-3.873-9.081-8.633-9.081c-0.523,0-1.046,0.057-1.562,0.159c-0.305-4.581-3.936-8.212-8.366-8.212   c-0.024,0-0.045,0.013-0.069,0.014c-0.096-0.003-0.189-0.014-0.285-0.014c-4.6,0-8.634,4.521-8.634,9.676v5.614   c0,0.562,0.447,1.018,1,1.018s1-0.456,1-1.018v-5.614c0-4.07,3.1-7.64,6.634-7.64c3.658,0,6.635,3.161,6.635,7.045   c0,0.112-0.009,0.224-0.016,0.333l-0.008,0.107c-0.009,0.13,0.015,0.255,0.053,0.375c-0.483,3.239-3.125,5.726-6.31,5.726   c-0.553,0-1,0.456-1,1.018c0,0.562,0.447,1.018,1,1.018c4.137,0,7.576-3.165,8.264-7.311c0.551-0.154,1.106-0.259,1.665-0.259   c3.657,0,6.633,3.16,6.633,7.044c0,2.507-1.219,4.771-3.261,6.056c-0.021,0.013-0.034,0.034-0.054,0.048   c-3.893,0.766-6.851,4.36-6.851,8.672c0,0.562,0.447,1.018,1,1.018s1-0.456,1-1.018c0-3.745,2.869-6.792,6.396-6.792   c0.842,0,1.645,0.178,2.382,0.494c2.358,1.081,4.014,3.573,4.014,6.47c0,3.883-2.976,7.042-6.634,7.042   c-0.177,0-0.351-0.012-0.523-0.028c-0.451-0.045-0.884,0.241-1.033,0.685c-0.148,0.442,0.019,0.932,0.405,1.185   c1.927,1.263,3.088,3.423,3.146,5.804c-0.02,0.08-0.048,0.157-0.048,0.244c0,3.747-2.87,6.794-6.397,6.794   c-3.526,0-6.395-3.048-6.395-6.794c0-0.562-0.447-1.018-1-1.018s-1,0.456-1,1.018c0,3.299,1.731,6.177,4.286,7.693   c0.049,0.166,0.094,0.308,0.134,0.428c0.118,0.365,0.15,0.464,0.15,0.932c0,3.884-2.977,7.045-6.635,7.045   s-6.634-3.161-6.634-7.045c0-0.053-0.021-0.098-0.029-0.148c0.008-0.051,0.029-0.096,0.029-0.148v-5.359   c0-0.562-0.447-1.018-1-1.018s-1,0.456-1,1.018v5.359c0,0.053,0.022,0.098,0.029,0.148c-0.007,0.05-0.029,0.095-0.029,0.148   c0,5.007,3.873,9.081,8.634,9.081s8.635-4.074,8.635-9.081c0-0.068-0.001-0.133-0.002-0.195c0.54,0.11,1.092,0.165,1.65,0.165   c4.76,0,8.633-4.073,8.633-9.079c0-2.255-0.78-4.372-2.161-6.007c3.877-0.892,6.788-4.53,6.788-8.87   c0-0.048-0.005-0.094-0.006-0.142C82.965,50.075,82.971,50.066,82.971,50.056z"/><path d="M47.271,67.539c-0.552,0-1,0.456-1,1.018v5.359c0,0.053,0.022,0.098,0.029,0.148c-0.007,0.05-0.029,0.095-0.029,0.148   c0,3.884-2.977,7.045-6.635,7.045c-3.657,0-6.633-3.161-6.633-7.045c0-0.47,0.032-0.568,0.15-0.935   c0.039-0.119,0.083-0.261,0.131-0.425c2.556-1.516,4.289-4.394,4.289-7.694c0-0.562-0.448-1.018-1-1.018s-1,0.456-1,1.018   c0,3.747-2.869,6.794-6.396,6.794c-3.527,0-6.396-3.048-6.396-6.794c0-0.089-0.029-0.168-0.05-0.251   c0.062-2.377,1.223-4.534,3.148-5.796c0.386-0.253,0.554-0.743,0.405-1.186c-0.149-0.442-0.566-0.718-1.033-0.685   c-0.173,0.016-0.347,0.028-0.523,0.028c-3.658,0-6.634-3.159-6.634-7.042c0-2.896,1.656-5.389,4.015-6.47   c0.737-0.315,1.539-0.493,2.381-0.493c3.527,0,6.396,3.047,6.396,6.792c0,0.562,0.448,1.018,1,1.018s1-0.456,1-1.018   c0-4.312-2.958-7.907-6.853-8.672c-0.02-0.015-0.033-0.035-0.053-0.048c-2.042-1.286-3.26-3.549-3.26-6.056   c0-3.884,2.977-7.044,6.635-7.044c0.559,0,1.114,0.105,1.665,0.259c0.687,4.146,4.126,7.311,8.263,7.311c0.552,0,1-0.456,1-1.018   c0-0.562-0.448-1.018-1-1.018c-3.204,0-5.857-2.517-6.318-5.785c0.041-0.132,0.065-0.269,0.056-0.404   c-0.008-0.116-0.017-0.234-0.017-0.353c0-3.884,2.976-7.045,6.633-7.045c3.534,0,6.635,3.57,6.635,7.64v5.614   c0,0.562,0.448,1.018,1,1.018s1-0.456,1-1.018v-5.614c0-5.154-4.035-9.676-8.635-9.676c-0.096,0-0.189,0.011-0.284,0.014   c-0.024-0.001-0.045-0.014-0.069-0.014c-4.431,0-8.062,3.631-8.367,8.211c-0.517-0.102-1.038-0.158-1.561-0.158   c-4.761,0-8.635,4.074-8.635,9.081c0,2.29,0.797,4.425,2.208,6.064c-0.539,0.121-1.057,0.299-1.554,0.521   c-3.089,1.305-5.279,4.481-5.279,8.19c0,0.011,0.006,0.02,0.006,0.03c0,0.047-0.006,0.094-0.006,0.142   c0,4.34,2.911,7.978,6.788,8.87c-1.38,1.635-2.162,3.752-2.162,6.007c0,5.006,3.874,9.079,8.635,9.079   c0.559,0,1.11-0.056,1.651-0.166c-0.001,0.062-0.002,0.127-0.002,0.195c0,5.007,3.873,9.081,8.633,9.081   c4.761,0,8.635-4.074,8.635-9.081c0-0.053-0.022-0.098-0.029-0.148c0.007-0.051,0.029-0.096,0.029-0.148v-5.359   C48.271,67.994,47.823,67.539,47.271,67.539z"/></g></g></svg>