<?xml version="1.0" encoding="UTF-8" standalone="no" ?>
<!DOCTYPE svg PUBLIC "-//W3C//DTD SVG 1.1//EN" "http://www.w3.org/Graphics/SVG/1.1/DTD/svg11.dtd">
<svg xmlns="http://www.w3.org/2000/svg" xmlns:xlink="http://www.w3.org/1999/xlink" version="1.1" width="1080" height="1080" viewBox="0 0 1080 1080" xml:space="preserve">
<desc>Created with Fabric.js 5.2.4</desc>
<defs>
</defs>
<rect x="0" y="0" width="100%" height="100%" fill="transparent"></rect>
<g transform="matrix(1 0 0 1 540 540)" id="10b6f9e6-2a0d-4c0c-948d-72d4e04b96fd"  >
<rect style="stroke: none; stroke-width: 1; stroke-dasharray: none; stroke-linecap: butt; stroke-dashoffset: 0; stroke-linejoin: miter; stroke-miterlimit: 4; fill: rgb(255,255,255); fill-rule: nonzero; opacity: 1; visibility: hidden;" vector-effect="non-scaling-stroke"  x="-540" y="-540" rx="0" ry="0" width="1080" height="1080" />
</g>
<g transform="matrix(1 0 0 1 540 540)" id="8f75f4a9-4ef2-4cba-89bc-02f8e848f895"  >
</g>
<g transform="matrix(12.53 0 0 12.53 538.66 538.66)"  >
<g style="" vector-effect="non-scaling-stroke"   >
		<g transform="matrix(0.08 0 0 0.08 1.78 -17.2)"  >
<path style="stroke: none; stroke-width: 1; stroke-dasharray: none; stroke-linecap: butt; stroke-dashoffset: 0; stroke-linejoin: miter; stroke-miterlimit: 4; fill: rgb(220,223,229); fill-rule: nonzero; opacity: 1;" vector-effect="non-scaling-stroke"  transform=" translate(-513, -289.1)" d="M 534 247.1 C 545.2 235.9 551.4 221 551.4 205.1 C 551.4 172.3 524.6999999999999 145.7 492 145.7 C 459.3 145.7 432.6 172.39999999999998 432.6 205.1 C 432.6 221 438.8 235.9 450 247.1 L 652.8 450 L 610.8 492 L 408 289.1 C 386.5 267.6 373.2 237.8 373.2 205.00000000000003 L 373.2 205.00000000000003 C 373.2 139.40000000000003 426.4 86.20000000000003 492 86.20000000000003 C 557.6 86.20000000000003 610.8 139.40000000000003 610.8 205.00000000000003 C 610.8 237.8 597.5 267.5 576 289 L 534 247.1 z" stroke-linecap="round" />
</g>
		<g transform="matrix(0.08 0 0 0.08 1.78 -17.21)"  >
<path style="stroke: none; stroke-width: 1; stroke-dasharray: none; stroke-linecap: butt; stroke-dashoffset: 0; stroke-linejoin: miter; stroke-miterlimit: 4; fill: rgb(220,223,229); fill-rule: nonzero; opacity: 1;" vector-effect="non-scaling-stroke"  transform=" translate(-513.1, -289.04)" d="M 534 247.1 L 542.1 255.2 C 555.5 241.89999999999998 562.9 223.89999999999998 562.9 205 C 562.9 165.9 531.1 134.1 492 134.1 C 452.9 134.1 421.2 165.9 421.1 205 L 421.1 205 C 421.1 223.9 428.5 241.8 441.90000000000003 255.2 L 636.6 450 L 610.9 475.7 L 416.1 281 C 396.6 261.5 384.70000000000005 234.7 384.70000000000005 205.1 C 384.70000000000005 202.1 383.50000000000006 199.1 381.30000000000007 197 C 379.1000000000001 194.9 376.20000000000005 193.6 373.20000000000005 193.6 C 370.20000000000005 193.6 367.20000000000005 194.79999999999998 365.1 197 C 363 199.20000000000002 361.70000000000005 202.1 361.70000000000005 205.1 L 361.70000000000005 205.1 C 361.70000000000005 208.1 362.90000000000003 211.1 365.1 213.2 C 367.3 215.29999999999998 370.20000000000005 216.6 373.20000000000005 216.6 C 376.20000000000005 216.6 379.20000000000005 215.4 381.30000000000007 213.2 C 383.4000000000001 210.99999999999997 384.70000000000005 208.1 384.70000000000005 205.1 C 384.80000000000007 145.8 432.80000000000007 97.89999999999999 492.00000000000006 97.8 C 551.3000000000001 97.89999999999999 599.2 145.9 599.3000000000001 205.1 C 599.3000000000001 234.79999999999998 587.3000000000001 261.5 567.9000000000001 281 L 576.0000000000001 289.1 L 584.1000000000001 281 L 542.1000000000001 239 L 534 247.1 L 542.1 255.2 L 534 247.1 L 525.9 255.2 L 567.9 297.2 C 570 299.3 573 300.59999999999997 576 300.59999999999997 C 579 300.59999999999997 582 299.4 584.1 297.2 C 607.7 273.59999999999997 622.3000000000001 241 622.3000000000001 205 C 622.3000000000001 133 564.0000000000001 74.69999999999999 492.00000000000006 74.69999999999999 C 420.00000000000006 74.69999999999999 361.70000000000005 133 361.70000000000005 205 C 361.70000000000005 208 362.90000000000003 211 365.1 213.1 C 367.3 215.2 370.20000000000005 216.5 373.20000000000005 216.5 C 376.20000000000005 216.5 379.20000000000005 215.3 381.30000000000007 213.1 C 383.4000000000001 210.89999999999998 384.70000000000005 208 384.70000000000005 205 L 384.70000000000005 205 C 384.70000000000005 202 383.50000000000006 199 381.30000000000007 196.9 C 379.1000000000001 194.8 376.20000000000005 193.5 373.20000000000005 193.5 C 370.20000000000005 193.5 367.20000000000005 194.7 365.1 196.9 C 363 199.10000000000002 361.70000000000005 202 361.70000000000005 205 C 361.70000000000005 240.9 376.30000000000007 273.6 399.90000000000003 297.2 L 602.8000000000001 500 C 607.3000000000001 504.5 614.6 504.5 619.1 500 L 661.1 458 C 663.2 455.9 664.5 452.9 664.5 449.9 C 664.5 446.9 663.3 443.9 661.1 441.79999999999995 L 458.1 239 C 449 229.9 444.1 218 444 205.1 L 444 205.1 C 444 178.7 465.5 157.2 491.9 157.2 C 518.3 157.2 539.8 178.7 539.8 205.1 C 539.8 218 534.9 229.9 525.8 239 C 523.5999999999999 241.2 522.4 244.1 522.4 247.1 C 522.4 250.2 523.6 253.1 525.8 255.2 L 534 247.1 z" stroke-linecap="round" />
</g>
		<g transform="matrix(0.08 0 0 0.08 17.19 1.78)"  >
<path style="stroke: none; stroke-width: 1; stroke-dasharray: none; stroke-linecap: butt; stroke-dashoffset: 0; stroke-linejoin: miter; stroke-miterlimit: 4; fill: rgb(220,223,229); fill-rule: nonzero; opacity: 1;" vector-effect="non-scaling-stroke"  transform=" translate(-694.85, -513)" d="M 736.8 534 C 748 545.2 762.9 551.4 778.8 551.4 C 811.5 551.4 838.1999999999999 524.6999999999999 838.1999999999999 492 C 838.1999999999999 459.2 811.5999999999999 432.6 778.9 432.6 L 778.9 432.6 C 763 432.6 748.1 438.8 736.9 450 L 534 652.8 L 492 610.8 L 694.9 408 C 716.4 386.5 746.1 373.2 778.9 373.2 L 778.9 373.2 C 844.5 373.2 897.6999999999999 426.4 897.6999999999999 492.1 C 897.6999999999999 557.8000000000001 844.4999999999999 610.9 778.9 610.9 C 746.1 610.9 716.4 597.6 694.9 576.1 L 736.8 534 z" stroke-linecap="round" />
</g>
		<g transform="matrix(0.08 0 0 0.08 17.19 1.77)"  >
<path style="stroke: none; stroke-width: 1; stroke-dasharray: none; stroke-linecap: butt; stroke-dashoffset: 0; stroke-linejoin: miter; stroke-miterlimit: 4; fill: rgb(220,223,229); fill-rule: nonzero; opacity: 1;" vector-effect="non-scaling-stroke"  transform=" translate(-694.85, -512.99)" d="M 736.8 534 L 728.6999999999999 542.1 C 741.9999999999999 555.5 759.9999999999999 562.9 778.9 562.9 C 818 562.9 849.8 531.1 849.8 492 C 849.8 452.9 818.0999999999999 421.1 779 421.1 C 775.9 421.1 773 422.3 770.9 424.5 C 768.6999999999999 426.7 767.5 429.6 767.5 432.6 L 767.5 432.6 L 779 432.6 L 779 421.1 C 760.1 421.1 742.2 428.5 728.8 441.8 L 728.8 441.8 L 534 636.6 L 508.3 610.9 L 703 416.1 C 722.5 396.70000000000005 749.2 384.70000000000005 778.9 384.70000000000005 C 784.1999999999999 384.70000000000005 788.9 381.00000000000006 790.1 375.80000000000007 C 791.3000000000001 370.6000000000001 788.8000000000001 365.20000000000005 784 362.9000000000001 L 784 362.9000000000001 L 778.9 373.2000000000001 L 778.9 384.7000000000001 C 838.1999999999999 384.8000000000001 886.1 432.8000000000001 886.1999999999999 492.10000000000014 C 886.0999999999999 551.4000000000001 838.0999999999999 599.3000000000002 778.9 599.4000000000001 C 749.1999999999999 599.4000000000001 722.5 587.4000000000001 703 568.0000000000001 L 694.9 576.1000000000001 L 703 584.2000000000002 L 745 542.2000000000002 L 736.8 534 L 728.6999999999999 542.1 L 736.8 534 L 728.6999999999999 525.9 L 686.6999999999999 567.9 C 682.1999999999999 572.4 682.1999999999999 579.6999999999999 686.6999999999999 584.1999999999999 C 710.1999999999999 607.8 742.9 622.4 778.9 622.4 C 850.9 622.4 909.2 564.1 909.2 492.09999999999997 C 909.2 420.09999999999997 850.9000000000001 361.69999999999993 778.9000000000001 361.69999999999993 C 773.6000000000001 361.69999999999993 768.9000000000001 365.3999999999999 767.7 370.5999999999999 C 766.5 375.7999999999999 769 381.19999999999993 773.8000000000001 383.4999999999999 L 773.8000000000001 383.4999999999999 L 778.9000000000001 373.1999999999999 L 778.9000000000001 361.6999999999999 C 742.9000000000001 361.6999999999999 710.3000000000001 376.2999999999999 686.7 399.89999999999986 L 483.9 602.7 C 481.79999999999995 604.8000000000001 480.5 607.8000000000001 480.5 610.8000000000001 C 480.5 613.8000000000001 481.7 616.8000000000001 483.9 618.9000000000001 L 525.9 660.9000000000001 C 530.4 665.4000000000001 537.6999999999999 665.4000000000001 542.1999999999999 660.9000000000001 L 745 458.1 L 745 458.1 C 754.2 449 766 444.1 778.9 444.1 C 781.9 444.1 784.9 442.90000000000003 787 440.70000000000005 C 789.1 438.50000000000006 790.4 435.6 790.4 432.6 L 790.4 432.6 L 778.9 432.6 L 778.9 444.1 C 805.3 444.1 826.8 465.6 826.6999999999999 492 C 826.6999999999999 518.4 805.1999999999999 539.9 778.8 539.9 C 765.9 539.9 754 535 744.9 525.9 C 742.6999999999999 523.6999999999999 739.8 522.5 736.8 522.5 C 733.6999999999999 522.5 730.8 523.7 728.6999999999999 525.9 L 736.8 534 z" stroke-linecap="round" />
</g>
		<g transform="matrix(0.08 0 0 0.08 -17.2 -1.78)"  >
<path style="stroke: none; stroke-width: 1; stroke-dasharray: none; stroke-linecap: butt; stroke-dashoffset: 0; stroke-linejoin: miter; stroke-miterlimit: 4; fill: rgb(220,223,229); fill-rule: nonzero; opacity: 1;" vector-effect="non-scaling-stroke"  transform=" translate(-289.1, -471)" d="M 247.1 450 C 235.79999999999998 438.8 221 432.6 205.1 432.6 C 172.3 432.6 145.7 459.3 145.7 492 C 145.7 524.8 172.29999999999998 551.4 205.1 551.5 L 205.1 551.5 C 221 551.5 235.9 545.3 247.1 534.1 L 450 331.2 L 492 373.2 L 289.1 576 C 267.6 597.5 237.8 610.8 205.00000000000003 610.8 L 205.00000000000003 610.8 C 139.3 610.8 86.20000000000003 557.5999999999999 86.20000000000003 491.9 C 86.20000000000003 426.29999999999995 139.40000000000003 373.09999999999997 205.00000000000003 373.09999999999997 C 237.8 373.09999999999997 267.5 386.4 289 407.9 L 247.1 450 z" stroke-linecap="round" />
</g>
		<g transform="matrix(0.08 0 0 0.08 -17.2 -1.77)"  >
<path style="stroke: none; stroke-width: 1; stroke-dasharray: none; stroke-linecap: butt; stroke-dashoffset: 0; stroke-linejoin: miter; stroke-miterlimit: 4; fill: rgb(220,223,229); fill-rule: nonzero; opacity: 1;" vector-effect="non-scaling-stroke"  transform=" translate(-289.09, -471.16)" d="M 247.1 450 L 255.2 441.9 C 241.89999999999998 428.5 223.89999999999998 421.09999999999997 205 421.09999999999997 C 165.9 421.09999999999997 134.1 452.9 134.1 492 C 134.1 531.1 165.79999999999998 562.9 205 563 C 208.1 563 211 561.8 213.1 559.6 C 215.29999999999998 557.4 216.5 554.5 216.5 551.5 L 216.5 551.5 L 205 551.5 L 205 563 C 223.9 563 241.8 555.6 255.2 542.2 L 255.2 542.2 L 450 347.4 L 475.7 373.09999999999997 L 281 567.9 L 281 567.9 C 261.5 587.3 234.7 599.3 205.1 599.4 C 200 599.4 195.6 602.6999999999999 194.1 607.5 C 192.6 612.3 194.5 617.6 198.7 620.4 L 198.7 620.4 L 205.1 610.9 L 205.1 599.4 C 145.8 599.2 97.9 551.3 97.8 492 C 97.89999999999999 432.7 145.8 384.8 205.1 384.7 C 234.79999999999998 384.7 261.5 396.7 281 416.09999999999997 L 289.1 407.99999999999994 L 281 399.8999999999999 L 239 441.8999999999999 L 247.1 450 L 255.2 441.9 L 247.1 450 L 255.2 458.1 L 297.2 416.1 C 299.4 413.90000000000003 300.59999999999997 411 300.59999999999997 408 C 300.59999999999997 404.9 299.4 402 297.2 399.9 C 273.59999999999997 376.4 241 361.7 205 361.79999999999995 C 133 361.79999999999995 74.69999999999999 420.09999999999997 74.69999999999999 492.09999999999997 C 74.69999999999999 564.0999999999999 133 622.5 205 622.5 C 210.1 622.5 214.5 619.2 216 614.4 C 217.5 609.6 215.6 604.3 211.4 601.5 L 211.4 601.5 L 205 611 L 205 622.5 C 240.9 622.5 273.6 607.9 297.2 584.3 L 297.2 584.3 L 500.1 381.49999999999994 C 504.6 376.99999999999994 504.6 369.69999999999993 500.1 365.19999999999993 L 458.1 323.19999999999993 C 453.6 318.69999999999993 446.3 318.69999999999993 441.8 323.19999999999993 L 239 525.9 L 239 525.9 C 229.8 535 218 539.9 205.1 540 C 202.1 540 199.1 541.2 197 543.4 C 194.9 545.5999999999999 193.6 548.5 193.6 551.5 L 193.6 551.5 L 205.1 551.5 L 205.1 540 C 178.7 540 157.2 518.5 157.2 492 C 157.2 465.6 178.7 444.2 205.1 444.1 C 218 444.1 229.79999999999998 449 239 458.1 C 243.5 462.6 250.8 462.6 255.3 458.1 L 247.1 450 z" stroke-linecap="round" />
</g>
		<g transform="matrix(0.08 0 0 0.08 0 0)"  >
<path style="stroke: none; stroke-width: 1; stroke-dasharray: none; stroke-linecap: butt; stroke-dashoffset: 0; stroke-linejoin: miter; stroke-miterlimit: 4; fill: rgb(220,223,229); fill-rule: nonzero; opacity: 1;" vector-effect="non-scaling-stroke"  transform=" translate(-492.05, -492.05)" d="M 778.9 298.9 L 767.4 298.9 L 767.4 298.9 L 778.9 298.9 L 778.9 287.4 C 729.6 287.4 682.9 304.9 645.9 336.7 L 653.4 345.4 L 661.5 337.29999999999995 L 646.8 322.59999999999997 L 638.6999999999999 330.7 L 647.4 338.2 C 679.1999999999999 301.2 696.6 254.39999999999998 696.6 205.1 L 696.6 205.1 C 696.6 92.3 604.9 0.5 492 0.5 C 379.1 0.5 287.4 92.3 287.4 205.1 C 287.4 254.39999999999998 305 301.1 336.7 338.1 L 345.4 330.6 L 337.29999999999995 322.5 L 322.59999999999997 337.2 L 330.7 345.3 L 338.2 336.6 C 301.2 304.8 254.29999999999998 287.40000000000003 205 287.40000000000003 C 92.3 287.4 0.5 379.2 0.5 492 C 0.5 604.9 92.3 696.6 205.1 696.7 C 208.1 696.7 211.1 695.5 213.2 693.3000000000001 C 215.29999999999998 691.1000000000001 216.6 688.2 216.6 685.2 L 216.6 685.2 L 205.1 685.2 L 205.1 696.7 C 254.39999999999998 696.7 301.1 679.2 338.1 647.4000000000001 L 330.6 638.7 L 322.5 646.8000000000001 L 337.2 661.5000000000001 L 345.3 653.4000000000001 L 336.6 645.9000000000001 C 304.8 682.9000000000001 287.40000000000003 729.8000000000001 287.40000000000003 779.0000000000001 C 287.40000000000003 891.8000000000001 379.20000000000005 983.6000000000001 492 983.6000000000001 C 604.9 983.6000000000001 696.6 891.8000000000002 696.6 779.0000000000001 C 696.6 776.0000000000001 695.4 773.0000000000001 693.2 770.9000000000001 C 691.0000000000001 768.8000000000001 688.1 767.5000000000001 685.1 767.5000000000001 L 685.1 767.5000000000001 L 685.1 779.0000000000001 L 696.6 779.0000000000001 C 696.6 729.7000000000002 679.1 683.0000000000001 647.3000000000001 646.0000000000001 L 638.6 653.5000000000001 L 646.7 661.6000000000001 L 661.4000000000001 646.9000000000001 L 653.3000000000001 638.8000000000001 L 645.8000000000001 647.5000000000001 C 682.8000000000001 679.4000000000001 729.7 696.7000000000002 779 696.7000000000002 L 779 696.7000000000002 C 891.8 696.7000000000002 983.6 604.9000000000002 983.6 492.10000000000014 C 983.6 379.20000000000016 891.8000000000001 287.5000000000001 779 287.40000000000015 C 776 287.40000000000015 773 288.60000000000014 770.9 290.8000000000001 C 768.8 293.0000000000001 767.5 295.90000000000015 767.5 298.90000000000015 L 778.9 298.90000000000015 L 778.9 310.40000000000015 C 879 310.6 960.3 391.9 960.5 492 C 960.3 592.1 879 673.4 778.9 673.6 L 778.9 673.6 C 735 673.6 693.6999999999999 658.2 660.6999999999999 629.9 C 656.0999999999999 626 649.3 626.1999999999999 645.0999999999999 630.5 L 630.3999999999999 645.2 C 626.1999999999998 649.4000000000001 625.8999999999999 656.3000000000001 629.7999999999998 660.8000000000001 C 658.0999999999998 693.8000000000001 673.5999999999998 735.0000000000001 673.5999999999998 778.8000000000001 C 673.5999999999998 781.8000000000001 674.7999999999998 784.8000000000001 676.9999999999998 786.9000000000001 C 679.1999999999997 789.0000000000001 682.0999999999998 790.3000000000001 685.0999999999998 790.3000000000001 L 685.0999999999998 790.3000000000001 L 685.0999999999998 778.8000000000001 L 673.5999999999998 778.8000000000001 C 673.4 879 592.1 960.3 492 960.5 C 391.9 960.3 310.5 879 310.4 778.9 C 310.4 735 325.79999999999995 693.6999999999999 354.09999999999997 660.6999999999999 C 357.99999999999994 656.0999999999999 357.79999999999995 649.3 353.49999999999994 645.0999999999999 L 338.79999999999995 630.3999999999999 C 334.59999999999997 626.1999999999998 327.69999999999993 625.8999999999999 323.19999999999993 629.7999999999998 C 290.19999999999993 658.0999999999998 248.99999999999994 673.5999999999998 205.19999999999993 673.5999999999998 C 202.19999999999993 673.5999999999998 199.19999999999993 674.7999999999998 197.09999999999994 676.9999999999998 C 194.99999999999994 679.1999999999997 193.69999999999993 682.0999999999998 193.69999999999993 685.0999999999998 L 193.69999999999993 685.0999999999998 L 205.19999999999993 685.0999999999998 L 205.19999999999993 673.5999999999998 C 105 673.4 23.7 592.1 23.5 492 C 23.7 391.9 105 310.6 205.1 310.4 C 249 310.4 290.3 325.79999999999995 323.3 354.09999999999997 C 327.90000000000003 357.99999999999994 334.7 357.7 338.90000000000003 353.49999999999994 L 353.6 338.79999999999995 C 357.8 334.59999999999997 358.1 327.69999999999993 354.20000000000005 323.19999999999993 C 325.90000000000003 290.29999999999995 310.40000000000003 248.99999999999994 310.40000000000003 205.19999999999993 C 310.6 105 391.9 23.7 492 23.5 C 592.1 23.7 673.4 105 673.6 205.1 L 673.6 205.1 C 673.6 249 658.2 290.4 630 323.3 C 626.1 327.90000000000003 626.3 334.7 630.6 338.90000000000003 L 645.3000000000001 353.6 C 649.5000000000001 357.8 656.4000000000001 358.1 660.9000000000001 354.20000000000005 C 693.9000000000001 325.90000000000003 735.1000000000001 310.40000000000003 778.9000000000001 310.40000000000003 C 781.9000000000001 310.40000000000003 784.9000000000001 309.20000000000005 787.0000000000001 307.00000000000006 C 789.1000000000001 304.80000000000007 790.4000000000001 301.90000000000003 790.4000000000001 298.90000000000003 L 790.4000000000001 298.90000000000003 L 778.9 298.90000000000003 L 778.9 310.40000000000003 L 778.9 298.9 z" stroke-linecap="round" />
</g>
		<g transform="matrix(0.08 0 0 0.08 -1.79 17.19)"  >
<path style="stroke: none; stroke-width: 1; stroke-dasharray: none; stroke-linecap: butt; stroke-dashoffset: 0; stroke-linejoin: miter; stroke-miterlimit: 4; fill: rgb(220,223,229); fill-rule: nonzero; opacity: 1;" vector-effect="non-scaling-stroke"  transform=" translate(-470.95, -694.85)" d="M 450 736.8 C 438.8 748 432.6 762.9 432.6 778.8 C 432.6 811.5 459.3 838.1999999999999 492 838.1999999999999 C 524.7 838.1999999999999 551.4 811.5999999999999 551.4 778.8 L 551.4 778.8 C 551.4 762.9 545.1999999999999 748 534 736.8 L 331.1 534 L 373.1 492 L 576 694.9 C 597.5 716.4 610.8 746.1 610.8 778.9 L 610.8 778.9 C 610.8 844.5 557.5999999999999 897.6999999999999 491.99999999999994 897.6999999999999 C 426.29999999999995 897.6999999999999 373.19999999999993 844.4999999999999 373.19999999999993 778.9 C 373.19999999999993 746.1 386.49999999999994 716.4 407.99999999999994 694.9 L 450 736.8 z" stroke-linecap="round" />
</g>
		<g transform="matrix(0.08 0 0 0.08 -1.78 17.19)"  >
<path style="stroke: none; stroke-width: 1; stroke-dasharray: none; stroke-linecap: butt; stroke-dashoffset: 0; stroke-linejoin: miter; stroke-miterlimit: 4; fill: rgb(220,223,229); fill-rule: nonzero; opacity: 1;" vector-effect="non-scaling-stroke"  transform=" translate(-471.01, -694.8)" d="M 450 736.8 L 441.9 728.6999999999999 C 428.59999999999997 741.9999999999999 421.09999999999997 759.9999999999999 421.2 778.8 C 421.2 817.9 453 849.6999999999999 492.1 849.6999999999999 C 531.2 849.6999999999999 563 817.9999999999999 563 778.8 C 563 775.6999999999999 561.8 772.8 559.6 770.6999999999999 C 557.4 768.4999999999999 554.5 767.3 551.5 767.3 L 551.5 767.3 L 551.5 778.8 L 563 778.8 C 563 759.9 555.6 742 542.3 728.5999999999999 L 542.3 728.5999999999999 L 347.4 534 L 373.09999999999997 508.2 L 567.8 703 C 587.3 722.5 599.3 749.2 599.3 778.9 C 599.3 784.3 603 788.9 608.1999999999999 790.1 C 613.4 791.3000000000001 618.8 788.7 621.0999999999999 783.9 L 621.0999999999999 783.9 L 610.6999999999999 778.9 L 599.1999999999999 778.9 C 599.0999999999999 838.1999999999999 551.0999999999999 886.1 491.8999999999999 886.1999999999999 C 432.5999999999999 886.0999999999999 384.69999999999993 838.0999999999999 384.5999999999999 778.9 C 384.5999999999999 749.1999999999999 396.5999999999999 722.5 415.9999999999999 703 L 407.89999999999986 694.9 L 399.79999999999984 703 L 441.79999999999984 745 L 450 736.8 L 441.9 728.6999999999999 L 450 736.8 L 458.1 728.6999999999999 L 416.1 686.6999999999999 C 411.6 682.1999999999999 404.3 682.1999999999999 399.8 686.6999999999999 C 376.2 710.1999999999999 361.6 742.9 361.6 778.9 C 361.6 850.9 419.90000000000003 909.2 491.90000000000003 909.2 C 563.9000000000001 909.2 622.2 850.9000000000001 622.2 778.9000000000001 C 622.2 773.5000000000001 618.5 768.9000000000001 613.3000000000001 767.7 C 608.1 766.5 602.7 769.1 600.4000000000001 773.9000000000001 L 600.4000000000001 773.9000000000001 L 610.8000000000001 778.9000000000001 L 622.3000000000001 778.9000000000001 C 622.3000000000001 742.9000000000001 607.7 710.3000000000001 584.1 686.7 L 381.3 483.8 C 379.1 481.6 376.2 480.40000000000003 373.2 480.40000000000003 C 370.09999999999997 480.40000000000003 367.2 481.6 365.09999999999997 483.8 L 323.09999999999997 525.8 C 318.59999999999997 530.3 318.59999999999997 537.5999999999999 323.09999999999997 542.0999999999999 L 525.9 745 L 525.9 745 C 535 754.2 539.9 766.1 540 778.9 C 540 781.9 541.2 784.9 543.4 787 C 545.5999999999999 789.1 548.5 790.4 551.5 790.4 L 551.5 790.4 L 551.5 778.9 L 540 778.9 C 540 805.3 518.5 826.6999999999999 492.1 826.8 C 465.70000000000005 826.8 444.20000000000005 805.3 444.20000000000005 778.9 C 444.20000000000005 766 449.1 754.1 458.20000000000005 745 C 462.70000000000005 740.5 462.70000000000005 733.2 458.20000000000005 728.7 L 450 736.8 z" stroke-linecap="round" />
</g>
		<g transform="matrix(0.08 0 0 0.08 -0.02 0)"  >
<path style="stroke: none; stroke-width: 1; stroke-dasharray: none; stroke-linecap: butt; stroke-dashoffset: 0; stroke-linejoin: miter; stroke-miterlimit: 4; fill: rgb(220,223,229); fill-rule: nonzero; opacity: 1;" vector-effect="non-scaling-stroke"  transform=" translate(-491.86, -492.01)" d="M 491.9 610.8 L 500 602.6999999999999 L 389.3 492 L 491.9 389.5 L 594.5 492 L 483.8 602.7 L 491.9 610.8 L 500 602.6999999999999 L 491.9 610.8 L 500 618.9 L 618.8 500.09999999999997 C 620.9 497.99999999999994 622.1999999999999 494.99999999999994 622.1999999999999 491.99999999999994 C 622.1999999999999 488.99999999999994 620.9999999999999 485.99999999999994 618.8 483.8999999999999 L 500 365 C 495.5 360.5 488.2 360.5 483.7 365 L 364.9 483.8 C 360.4 488.3 360.4 495.6 364.9 500.1 L 483.8 619 C 485.90000000000003 621.1 488.90000000000003 622.4 491.90000000000003 622.4 C 494.90000000000003 622.4 497.90000000000003 621.1999999999999 500.00000000000006 619 L 491.9 610.8 z" stroke-linecap="round" />
</g>
</g>
</g>
<g transform="matrix(NaN NaN NaN NaN 0 0)"  >
<g style=""   >
</g>
</g>
<g transform="matrix(NaN NaN NaN NaN 0 0)"  >
<g style=""   >
</g>
</g>
<g transform="matrix(NaN NaN NaN NaN 0 0)"  >
<g style=""   >
</g>
</g>
<g transform="matrix(NaN NaN NaN NaN 0 0)"  >
<g style=""   >
</g>
</g>
</svg>